<svg xmlns="http://www.w3.org/2000/svg" xmlns:xlink="http://www.w3.org/1999/xlink" width="1200" zoomAndPan="magnify" viewBox="0 0 900 472.499986" height="630" preserveAspectRatio="xMidYMid meet" version="1.0"><defs><g/><clipPath id="82cecbe0c1"><path d="M 314.847656 171.953125 L 414.492188 171.953125 L 414.492188 285 L 314.847656 285 Z M 314.847656 171.953125 " clip-rule="nonzero"/></clipPath></defs><path stroke-linecap="butt" transform="matrix(0.648674, 0.374878, -0.374878, 0.648674, 381.101196, 233.572581)" fill="none" stroke-linejoin="miter" d="M 0.000770797 2.501168 L 49.597919 2.502497 " stroke="#fffcef" stroke-width="5" stroke-opacity="1" stroke-miterlimit="4"/><g clip-path="url(#82cecbe0c1)"><path fill="#fffcef" d="M 414.792969 255.199219 L 414.832031 201.710938 C 414.832031 200.992188 414.449219 200.332031 413.824219 199.964844 L 365.953125 172.316406 C 365.609375 172.101562 365.246094 171.996094 364.867188 171.996094 C 364.511719 171.996094 364.160156 172.097656 363.851562 172.277344 L 315.910156 199.964844 C 315.28125 200.332031 314.90625 200.984375 314.902344 201.707031 L 314.902344 254.671875 C 314.871094 254.980469 314.859375 255.089844 314.859375 255.203125 C 314.859375 255.917969 315.246094 256.59375 315.871094 256.953125 L 363.742188 284.601562 C 364.421875 285.015625 365.207031 285.011719 365.84375 284.640625 L 413.78125 256.953125 C 414.402344 256.59375 414.789062 255.917969 414.792969 255.199219 Z M 362.851562 279.429688 L 318.9375 254.066406 L 318.9375 205.207031 L 362.851562 230.566406 Z M 364.871094 227.078125 L 320.960938 201.710938 L 364.867188 176.347656 L 408.78125 201.710938 Z M 410.757812 254.039062 L 366.886719 279.378906 L 366.886719 230.570312 L 410.800781 205.207031 Z M 410.757812 254.039062 " fill-opacity="1" fill-rule="nonzero"/></g><path stroke-linecap="butt" transform="matrix(0, 0.749207, -0.749207, 0, 366.706791, 175.896276)" fill="none" stroke-linejoin="miter" d="M -0.00232894 2.502324 L 49.59698 2.502324 " stroke="#fffcef" stroke-width="5" stroke-opacity="1" stroke-miterlimit="4"/><path stroke-linecap="butt" transform="matrix(0.650265, -0.372112, 0.372112, 0.650265, 316.551118, 253.549371)" fill="none" stroke-linejoin="miter" d="M -0.00157308 2.500252 L 49.599518 2.500455 " stroke="#fffcef" stroke-width="5" stroke-opacity="1" stroke-miterlimit="4"/><g fill="#fffcef" fill-opacity="1"><g transform="translate(128.591747, 259.307615)"><g><path d="M 10.78125 -61.890625 L 15.296875 -61.890625 L 15.296875 0 L 10.78125 0 Z M 10.78125 -61.890625 "/></g></g></g><g fill="#fffcef" fill-opacity="1"><g transform="translate(154.6767, 259.307615)"><g><path d="M 61.1875 -61.890625 L 61.1875 0 L 57.46875 0 L 15.296875 -53.765625 L 15.296875 0 L 10.78125 0 L 10.78125 -61.890625 L 14.59375 -61.890625 L 56.671875 -8.140625 L 56.671875 -61.890625 Z M 61.1875 -61.890625 "/></g></g></g><g fill="#fffcef" fill-opacity="1"><g transform="translate(226.653502, 259.307615)"><g><path d="M 61.1875 -61.890625 L 61.1875 0 L 57.46875 0 L 15.296875 -53.765625 L 15.296875 0 L 10.78125 0 L 10.78125 -61.890625 L 14.59375 -61.890625 L 56.671875 -8.140625 L 56.671875 -61.890625 Z M 61.1875 -61.890625 "/></g></g></g><g fill="#fffcef" fill-opacity="1"><g transform="translate(298.649519, 259.307615)"><g/></g></g><g fill="#fffcef" fill-opacity="1"><g transform="translate(321.374371, 259.307615)"><g/></g></g><g fill="#fffcef" fill-opacity="1"><g transform="translate(344.099223, 259.307615)"><g/></g></g><g fill="#fffcef" fill-opacity="1"><g transform="translate(366.824076, 259.307615)"><g/></g></g><g fill="#fffcef" fill-opacity="1"><g transform="translate(389.548928, 259.307615)"><g/></g></g><g fill="#fffcef" fill-opacity="1"><g transform="translate(412.273781, 259.307615)"><g/></g></g><g fill="#fffcef" fill-opacity="1"><g transform="translate(435.000461, 259.307615)"><g><path d="M 60.21875 -61.890625 L 32.625 0 L 28.125 0 L 0.53125 -61.890625 L 5.484375 -61.890625 L 30.5 -5.828125 L 55.53125 -61.890625 Z M 60.21875 -61.890625 "/></g></g></g><g fill="#fffcef" fill-opacity="1"><g transform="translate(495.747458, 259.307615)"><g><path d="M 10.78125 -61.890625 L 15.296875 -61.890625 L 15.296875 0 L 10.78125 0 Z M 10.78125 -61.890625 "/></g></g></g><g fill="#fffcef" fill-opacity="1"><g transform="translate(521.832411, 259.307615)"><g><path d="M 27.0625 0.4375 C 22.519531 0.4375 18.195312 -0.34375 14.09375 -1.90625 C 10 -3.46875 6.804688 -5.484375 4.515625 -7.953125 L 6.546875 -11.3125 C 8.722656 -9.019531 11.65625 -7.148438 15.34375 -5.703125 C 19.03125 -4.253906 22.90625 -3.53125 26.96875 -3.53125 C 32.863281 -3.53125 37.3125 -4.648438 40.3125 -6.890625 C 43.320312 -9.128906 44.828125 -12.050781 44.828125 -15.65625 C 44.828125 -18.425781 44.03125 -20.632812 42.4375 -22.28125 C 40.851562 -23.9375 38.878906 -25.203125 36.515625 -26.078125 C 34.160156 -26.960938 30.976562 -27.878906 26.96875 -28.828125 C 22.425781 -29.941406 18.785156 -31.03125 16.046875 -32.09375 C 13.304688 -33.15625 10.976562 -34.789062 9.0625 -37 C 7.144531 -39.21875 6.1875 -42.179688 6.1875 -45.890625 C 6.1875 -48.898438 6.984375 -51.65625 8.578125 -54.15625 C 10.171875 -56.664062 12.601562 -58.65625 15.875 -60.125 C 19.144531 -61.601562 23.226562 -62.34375 28.125 -62.34375 C 31.539062 -62.34375 34.898438 -61.835938 38.203125 -60.828125 C 41.503906 -59.828125 44.363281 -58.472656 46.78125 -56.765625 L 45.09375 -53.140625 C 42.613281 -54.847656 39.882812 -56.144531 36.90625 -57.03125 C 33.9375 -57.914062 31.007812 -58.359375 28.125 -58.359375 C 22.40625 -58.359375 18.070312 -57.207031 15.125 -54.90625 C 12.175781 -52.613281 10.703125 -49.640625 10.703125 -45.984375 C 10.703125 -43.210938 11.492188 -41 13.078125 -39.34375 C 14.671875 -37.695312 16.644531 -36.429688 19 -35.546875 C 21.363281 -34.660156 24.582031 -33.71875 28.65625 -32.71875 C 33.1875 -31.59375 36.804688 -30.5 39.515625 -29.4375 C 42.234375 -28.382812 44.550781 -26.78125 46.46875 -24.625 C 48.382812 -22.46875 49.34375 -19.566406 49.34375 -15.921875 C 49.34375 -12.910156 48.53125 -10.164062 46.90625 -7.6875 C 45.28125 -5.21875 42.785156 -3.242188 39.421875 -1.765625 C 36.066406 -0.296875 31.945312 0.4375 27.0625 0.4375 Z M 27.0625 0.4375 "/></g></g></g><g fill="#fffcef" fill-opacity="1"><g transform="translate(575.68238, 259.307615)"><g><path d="M 35.015625 0.4375 C 27.171875 0.4375 21.082031 -1.828125 16.75 -6.359375 C 12.414062 -10.898438 10.25 -17.535156 10.25 -26.265625 L 10.25 -61.890625 L 14.765625 -61.890625 L 14.765625 -26.4375 C 14.765625 -18.832031 16.503906 -13.144531 19.984375 -9.375 C 23.460938 -5.601562 28.503906 -3.71875 35.109375 -3.71875 C 41.648438 -3.71875 46.660156 -5.601562 50.140625 -9.375 C 53.617188 -13.144531 55.359375 -18.832031 55.359375 -26.4375 L 55.359375 -61.890625 L 59.859375 -61.890625 L 59.859375 -26.265625 C 59.859375 -17.535156 57.675781 -10.898438 53.3125 -6.359375 C 48.957031 -1.828125 42.859375 0.4375 35.015625 0.4375 Z M 35.015625 0.4375 "/></g></g></g><g fill="#fffcef" fill-opacity="1"><g transform="translate(645.802292, 259.307615)"><g><path d="M 49.078125 -17.421875 L 13.171875 -17.421875 L 5.3125 0 L 0.4375 0 L 28.90625 -61.890625 L 33.421875 -61.890625 L 61.890625 0 L 57.03125 0 Z M 47.390625 -21.21875 L 31.125 -56.9375 L 14.9375 -21.21875 Z M 47.390625 -21.21875 "/></g></g></g><g fill="#fffcef" fill-opacity="1"><g transform="translate(708.140913, 259.307615)"><g><path d="M 10.78125 -61.890625 L 15.296875 -61.890625 L 15.296875 -4.0625 L 50.9375 -4.0625 L 50.9375 0 L 10.78125 0 Z M 10.78125 -61.890625 "/></g></g></g><path stroke-linecap="butt" transform="matrix(0, 0.749207, -0.749207, 0, 116.686742, 260.243068)" fill="none" stroke-linejoin="miter" d="M -0.00117494 2.501634 L 36.062992 2.501634 " stroke="#fffcef" stroke-width="5" stroke-opacity="1" stroke-miterlimit="4"/><path stroke-linecap="butt" transform="matrix(-0.749207, 0, 0, -0.749207, 140.114902, 287.41728)" fill="none" stroke-linejoin="miter" d="M 0.00216316 2.501727 L 36.061116 2.501727 " stroke="#fffcef" stroke-width="5" stroke-opacity="1" stroke-miterlimit="4"/><path stroke-linecap="butt" transform="matrix(-0.749207, 0, 0, -0.749207, 140.114902, 175.536539)" fill="none" stroke-linejoin="miter" d="M 0.00216316 2.499278 L 36.061116 2.499278 " stroke="#fffcef" stroke-width="5" stroke-opacity="1" stroke-miterlimit="4"/><path stroke-linecap="butt" transform="matrix(0, -0.749207, 0.749207, 0, 112.940706, 198.964714)" fill="none" stroke-linejoin="miter" d="M -0.000173447 2.498366 L 36.05878 2.498366 " stroke="#fffcef" stroke-width="5" stroke-opacity="1" stroke-miterlimit="4"/><path stroke-linecap="butt" transform="matrix(0.749207, 0, 0, 0.749207, 759.949538, 283.671245)" fill="none" stroke-linejoin="miter" d="M -0.00042612 2.498273 L 36.058527 2.498273 " stroke="#fffcef" stroke-width="5" stroke-opacity="1" stroke-miterlimit="4"/><path stroke-linecap="butt" transform="matrix(0, 0.749207, -0.749207, 0, 787.1237, 260.243068)" fill="none" stroke-linejoin="miter" d="M -0.00117494 2.500911 L 36.062992 2.500911 " stroke="#fffcef" stroke-width="5" stroke-opacity="1" stroke-miterlimit="4"/><path stroke-linecap="butt" transform="matrix(0, -0.749207, 0.749207, 0, 783.377665, 198.964714)" fill="none" stroke-linejoin="miter" d="M -0.000173447 2.499089 L 36.05878 2.499089 " stroke="#fffcef" stroke-width="5" stroke-opacity="1" stroke-miterlimit="4"/><path stroke-linecap="butt" transform="matrix(0.749207, 0, 0, 0.749207, 759.949538, 171.790504)" fill="none" stroke-linejoin="miter" d="M -0.00042612 2.500722 L 36.058527 2.500722 " stroke="#fffcef" stroke-width="5" stroke-opacity="1" stroke-miterlimit="4"/></svg>